<svg width="24" height="24" viewBox="0 0 24 24" fill="none" xmlns="http://www.w3.org/2000/svg">
<g clip-path="url(#clip0_1398_930)">
<path d="M12 24.0001C5.38078 24.0001 0 18.6122 0 12.0001C0 5.38802 5.38078 0.00012207 12 0.00012207C18.6192 0.00012207 24 5.3809 24 12.0001C24 18.6193 18.6192 24.0001 12 24.0001Z" fill="#4A81FC"/>
<path d="M9.45913 9.89332C9.45913 10.6549 8.82568 11.267 8.04988 11.267C7.27408 11.267 6.64062 10.6549 6.64062 9.89332C6.64062 9.13175 7.27408 8.51965 8.04988 8.51965C8.82568 8.51965 9.45913 9.13175 9.45913 9.89332Z" fill="white"/>
<path d="M17.9357 9.89332C17.9357 10.6549 17.3022 11.267 16.5264 11.267C15.7506 11.267 15.1172 10.6549 15.1172 9.89332C15.1172 9.13175 15.7506 8.51965 16.5264 8.51965C17.3022 8.51965 17.9357 9.13175 17.9357 9.89332Z" fill="white"/>
<path d="M15.8577 18.2066C15.6726 18.2066 15.4876 18.1639 15.3097 18.0785C12.7403 16.8115 11.2527 16.8115 8.69043 18.0785C8.07122 18.3845 7.331 18.1283 7.02495 17.5162C6.7189 16.897 6.97513 16.1567 7.58723 15.8507C10.8399 14.2422 13.1531 14.2422 16.4057 15.8507C17.025 16.1567 17.2741 16.897 16.968 17.5162C16.7545 17.9575 16.3132 18.2066 15.8506 18.2066H15.8577Z" fill="white"/>
</g>
<defs>
<clipPath id="clip0_1398_930">
<rect width="24" height="24" fill="white"/>
</clipPath>
</defs>
</svg>
