<svg width="24" height="24" viewBox="0 0 24 24" fill="none" xmlns="http://www.w3.org/2000/svg">
<g clip-path="url(#clip0_1355_1604)">
<path d="M12.0036 24.0001C5.38238 24.0001 0 18.6122 0 12.0001C0 5.38802 5.38238 0.00012207 12.0036 0.00012207C18.6247 0.00012207 24.0071 5.38091 24.0071 12.0001C24.0071 18.6193 18.6247 24.0001 12.0036 24.0001ZM12.0036 1.42361C6.16553 1.42361 1.42391 6.16382 1.42391 12.0001C1.42391 17.8364 6.16553 22.5766 12.0036 22.5766C17.8416 22.5766 22.5832 17.8364 22.5832 12.0001C22.5832 6.16382 17.8345 1.42361 12.0036 1.42361Z" fill="#4A81FC"/>
<path d="M8.98496 11.3382C8.84257 11.3382 8.69306 11.2813 8.58627 11.1745L6.23682 8.82579C6.01611 8.60515 6.01611 8.24928 6.23682 8.02864C6.45752 7.808 6.8135 7.808 7.03421 8.02864L9.38366 10.3774C9.60437 10.598 9.60437 10.9539 9.38366 11.1745C9.27687 11.2813 9.12736 11.3382 8.98496 11.3382Z" fill="#4A81FC"/>
<path d="M6.63551 11.3382C6.49312 11.3382 6.34361 11.2813 6.23682 11.1745C6.01611 10.9539 6.01611 10.598 6.23682 10.3774L8.58627 8.02864C8.80698 7.808 9.16295 7.808 9.38366 8.02864C9.60437 8.24928 9.60437 8.60515 9.38366 8.82579L7.03421 11.1745C6.92741 11.2813 6.7779 11.3382 6.63551 11.3382Z" fill="#4A81FC"/>
<path d="M17.9128 11.3951C17.7562 11.3951 17.5925 11.331 17.4714 11.21L15.122 8.86129C14.8799 8.6193 14.8799 8.22784 15.122 7.97873C15.364 7.72962 15.7556 7.73674 16.0048 7.97873L18.3543 10.3275C18.5963 10.5695 18.5963 10.9609 18.3543 11.21C18.2332 11.331 18.0766 11.3951 17.9128 11.3951Z" fill="#4A81FC"/>
<path d="M15.5634 11.3954C15.4068 11.3954 15.243 11.3313 15.122 11.2103C14.8799 10.9683 14.8799 10.5768 15.122 10.3277L17.4714 7.97898C17.7135 7.73699 18.1051 7.73699 18.3471 7.97898C18.5892 8.22097 18.5892 8.61243 18.3471 8.86154L15.9977 11.2103C15.8767 11.3313 15.72 11.3954 15.5563 11.3954H15.5634Z" fill="#4A81FC"/>
<path d="M16.4529 16.2137C16.4529 17.082 16.1111 17.8365 15.6199 18.2208C15.3921 18.3987 15.1357 18.5055 14.8652 18.5055H9.14821C8.87766 18.5055 8.61424 18.4059 8.39353 18.2208C7.89517 17.8365 7.56055 17.082 7.56055 16.2137C7.56055 14.9468 8.2725 13.9219 9.15533 13.9219H14.8652C15.7338 13.9219 16.46 14.9468 16.46 16.2137H16.4529Z" fill="#4A81FC"/>
<path d="M15.6128 18.2207C15.385 18.3987 15.1286 18.5054 14.8581 18.5054H9.14823C8.87768 18.5054 8.61426 18.4058 8.39355 18.2207C8.75665 16.7617 10.2304 15.6798 12.0032 15.6798C13.7759 15.6798 15.2568 16.7617 15.6128 18.2207Z" fill="#8FB7FF"/>
</g>
<defs>
<clipPath id="clip0_1355_1604">
<rect width="24" height="24" fill="white"/>
</clipPath>
</defs>
</svg>
