<svg width="134" height="90" viewBox="0 0 134 90" fill="none" xmlns="http://www.w3.org/2000/svg">
<circle cx="67" cy="67" r="67" fill="#DCDCDC" fill-opacity="0.35"/>
<circle cx="67" cy="67" r="67" fill="url(#paint0_linear_436_1459)"/>
<circle cx="67" cy="67" r="65.5" stroke="#C6C6C6" stroke-opacity="0.34" stroke-width="3"/>
<g filter="url(#filter0_d_436_1459)">
<path fill-rule="evenodd" clip-rule="evenodd" d="M67.1461 25.8387C62.13 25.8387 58.0635 29.7573 58.0635 34.5911V43.4381C58.0635 48.2719 62.13 52.1905 67.1461 52.1905H68.1939C73.2101 52.1905 77.2765 48.2719 77.2765 43.4381V34.5911C77.2765 29.7573 73.2101 25.8387 68.1939 25.8387H67.1461ZM56.28 34.5911C56.28 28.8081 61.1449 24.12 67.1461 24.12H68.1939C74.1951 24.12 79.06 28.8081 79.06 34.5911V43.4381C79.06 49.2211 74.1951 53.9092 68.1939 53.9092H67.1461C61.1449 53.9092 56.28 49.2211 56.28 43.4381V34.5911Z" fill="#929292"/>
</g>
<defs>
<filter id="filter0_d_436_1459" x="54.28" y="24.12" width="26.78" height="33.7892" filterUnits="userSpaceOnUse" color-interpolation-filters="sRGB">
<feFlood flood-opacity="0" result="BackgroundImageFix"/>
<feColorMatrix in="SourceAlpha" type="matrix" values="0 0 0 0 0 0 0 0 0 0 0 0 0 0 0 0 0 0 127 0" result="hardAlpha"/>
<feOffset dy="2"/>
<feGaussianBlur stdDeviation="1"/>
<feComposite in2="hardAlpha" operator="out"/>
<feColorMatrix type="matrix" values="0 0 0 0 0 0 0 0 0 0 0 0 0 0 0 0 0 0 0.08 0"/>
<feBlend mode="normal" in2="BackgroundImageFix" result="effect1_dropShadow_436_1459"/>
<feBlend mode="normal" in="SourceGraphic" in2="effect1_dropShadow_436_1459" result="shape"/>
</filter>
<linearGradient id="paint0_linear_436_1459" x1="67" y1="-10" x2="67" y2="94" gradientUnits="userSpaceOnUse">
<stop stop-color="#F8F8F8" stop-opacity="0"/>
<stop offset="1" stop-color="#F8F8F8"/>
</linearGradient>
</defs>
</svg>
