<svg width="23" height="17" viewBox="0 0 23 17" fill="none" xmlns="http://www.w3.org/2000/svg">
<path fill-rule="evenodd" clip-rule="evenodd" d="M14.9028 0.51519C15.1087 0.627828 15.2354 0.835076 15.2354 1.05925V15.8007C15.2354 16.0249 15.1087 16.2322 14.9028 16.3448C14.6969 16.4574 14.4429 16.4584 14.236 16.3475L7.62511 12.8013H0.903801C0.534626 12.8013 0.235352 12.5195 0.235352 12.172V4.68799C0.235352 4.34046 0.534626 4.05873 0.903801 4.05873H7.62511L14.236 0.512526C14.4429 0.401538 14.6969 0.402553 14.9028 0.51519Z" fill="#3E6EF8"/>
<path fill-rule="evenodd" clip-rule="evenodd" d="M18.4613 3.59845C18.7626 3.37384 19.251 3.37384 19.5523 3.59845C23.1297 6.26555 23.1297 10.5944 19.5523 13.2615C19.251 13.4861 18.7626 13.4861 18.4613 13.2615C18.16 13.0369 18.16 12.6728 18.4613 12.4481C21.4362 10.2303 21.4362 6.62971 18.4613 4.41184C18.16 4.18723 18.16 3.82306 18.4613 3.59845Z" fill="#3E6EF8"/>
<path fill-rule="evenodd" clip-rule="evenodd" d="M16.4486 4.62153C16.733 4.36615 17.194 4.36615 17.4784 4.62153C19.821 6.72542 19.821 10.1346 17.4784 12.2385C17.194 12.4938 16.733 12.4938 16.4486 12.2385C16.1643 11.9831 16.1643 11.569 16.4486 11.3136C18.2225 9.72051 18.2225 7.13947 16.4486 5.54636C16.1643 5.29097 16.1643 4.87691 16.4486 4.62153Z" fill="#3E6EF8"/>
</svg>
