<svg width="517" height="517" viewBox="0 0 517 517" fill="none" xmlns="http://www.w3.org/2000/svg">
<path d="M2.78457 255.681C55.3655 255.782 104.196 271.688 144.975 298.738C140.519 286.131 138.009 272.429 138.037 258.225C138.165 191.769 192.203 137.931 258.647 138.06C325.092 138.188 378.921 192.235 378.793 258.69C378.664 325.146 324.627 378.984 258.182 378.855C243.98 378.828 230.375 376.35 217.788 371.844L115.811 473.445C156.504 500.579 205.42 516.4 258.001 516.502C400.527 516.777 516.225 401.506 516.501 258.956C516.776 116.406 401.44 0.773674 258.913 0.498307C116.387 0.22294 1.95873 114.313 0.501952 255.761C1.26277 255.762 2.02359 255.764 2.7844 255.765" fill="url(#paint0_linear_1165_2149)" fill-opacity="0.78"/>
<defs>
<linearGradient id="paint0_linear_1165_2149" x1="492.499" y1="14" x2="31.999" y2="406" gradientUnits="userSpaceOnUse">
<stop stop-color="#8EBBD8"/>
<stop offset="0.735" stop-color="#8EBBD8" stop-opacity="0"/>
</linearGradient>
</defs>
</svg>
