<svg width="15" height="17" viewBox="0 0 15 17" fill="none" xmlns="http://www.w3.org/2000/svg">
<g clip-path="url(#clip0_1355_1236)">
<path d="M5.06571 16.5C3.89674 16.5 2.72566 16.0409 1.83461 15.1228C0.0525248 13.2864 0.0525248 10.3002 1.83461 8.46392L8.59594 1.49904C9.89008 0.165522 11.9946 0.165522 13.2888 1.49904C14.5829 2.83255 14.5829 5.00116 13.2888 6.33467L7.55215 12.2459L6.64413 13.1815C5.82522 14.0253 4.49502 14.0253 3.6761 13.1815C2.85719 12.3377 2.85719 10.967 3.6761 10.1232L7.46092 6.22318C7.79188 5.88215 8.33075 5.88215 8.66171 6.22318C8.99267 6.56421 8.99267 7.11729 8.66171 7.46051L4.87689 11.3605C4.72202 11.5201 4.72202 11.7868 4.87689 11.9464C5.02964 12.106 5.29059 12.106 5.44546 11.9464L12.0922 5.09734C12.7244 4.44589 12.7244 3.38563 12.0922 2.73418C11.46 2.08272 10.4311 2.08272 9.79885 2.73418L3.0354 9.70125C1.91523 10.8555 1.91523 12.7312 3.0354 13.8854C4.15557 15.0397 5.97585 15.0397 7.09602 13.8854L9.91766 10.9779C10.2486 10.6369 10.7854 10.6369 11.1184 10.9779C11.4494 11.319 11.4494 11.872 11.1184 12.2153L8.2968 15.1228C7.40576 16.0409 6.2368 16.5 5.06571 16.5Z" fill="#333333"/>
</g>
<defs>
<clipPath id="clip0_1355_1236">
<rect width="14" height="16" fill="white" transform="translate(0.5 0.5)"/>
</clipPath>
</defs>
</svg>
