<svg width="65" height="65" viewBox="0 0 65 65" fill="none" xmlns="http://www.w3.org/2000/svg">
<g clip-path="url(#clip0_439_4759)">
<path d="M43.2692 43.4615C38.8405 43.4615 34.725 42.1371 31.286 39.8587C31.6634 40.9267 31.8699 42.0659 31.8699 43.2621C31.8699 48.8657 27.3272 53.4084 21.7307 53.4084C16.1343 53.4084 11.5916 48.8657 11.5916 43.2621C11.5916 37.6585 16.1343 33.123 21.7307 33.123C22.9269 33.123 24.0733 33.3295 25.1413 33.714L33.714 25.1342C30.2749 22.8628 26.1595 21.5314 21.7307 21.5314C9.72615 21.5314 0 31.2646 0 43.2621C0 55.2596 9.72615 65 21.7307 65C33.7353 65 43.3547 55.3735 43.4615 43.4544C43.3974 43.4544 43.3333 43.4544 43.2692 43.4544" fill="#FF5722"/>
<path d="M21.7308 21.5314C26.1595 21.5314 30.275 22.8629 33.714 25.1342C33.3366 24.0733 33.123 22.9198 33.123 21.7236C33.123 16.1272 37.6657 11.5845 43.2622 11.5845C48.8586 11.5845 53.4013 16.1272 53.4013 21.7236C53.4013 27.3201 48.8586 31.8627 43.2622 31.8627C42.066 31.8627 40.9196 31.6563 39.8587 31.2789L31.286 39.8516C34.718 42.13 38.8405 43.4544 43.2693 43.4544C55.2739 43.4544 65 33.7282 65 21.7236C65 9.71903 55.2739 0 43.2693 0C31.2647 0 21.6453 9.62646 21.5457 21.5385C21.6097 21.5385 21.6738 21.5385 21.7379 21.5385" fill="#4A81FC"/>
</g>
<defs>
<clipPath id="clip0_439_4759">
<rect width="65" height="65" fill="white"/>
</clipPath>
</defs>
</svg>
