<svg width="35" height="35" viewBox="0 0 35 35" fill="none" xmlns="http://www.w3.org/2000/svg">
<g clip-path="url(#clip0_586_1832)">
<path d="M23.2988 23.4023C20.9141 23.4023 18.6981 22.6892 16.8463 21.4623C17.0495 22.0374 17.1607 22.6508 17.1607 23.2949C17.1607 26.3122 14.7146 28.7583 11.7012 28.7583C8.6877 28.7583 6.24165 26.3122 6.24165 23.2949C6.24165 20.2776 8.6877 17.8354 11.7012 17.8354C12.3453 17.8354 12.9625 17.9466 13.5376 18.1536L18.1537 13.5337C16.3019 12.3107 14.0859 11.5938 11.7012 11.5938C5.23716 11.5938 0 16.8347 0 23.2949C0 29.7551 5.23716 34.9999 11.7012 34.9999C18.1652 34.9999 23.3448 29.8164 23.4023 23.3984C23.3678 23.3984 23.3333 23.3984 23.2988 23.3984" fill="#FF5722"/>
<path d="M12.0997 11.5938C14.4844 11.5938 16.7004 12.3108 18.5522 13.5338C18.349 12.9625 18.234 12.3414 18.234 11.6973C18.234 8.68386 20.68 6.23781 23.6935 6.23781C26.707 6.23781 29.153 8.68386 29.153 11.6973C29.153 14.7108 26.707 17.1569 23.6935 17.1569C23.0494 17.1569 22.4321 17.0457 21.8609 16.8425L17.2448 21.4585C19.0928 22.6854 21.3126 23.3985 23.6973 23.3985C30.1614 23.3985 35.3985 18.1614 35.3985 11.6973C35.3985 5.23332 30.1614 0 23.6973 0C17.2333 0 12.0537 5.18348 12 11.5977C12.0345 11.5977 12.069 11.5977 12.1035 11.5977" fill="#4A81FC"/>
</g>
<defs>
<clipPath id="clip0_586_1832">
<rect width="35" height="35" fill="white"/>
</clipPath>
</defs>
</svg>
