<svg width="152" height="49" viewBox="0 0 152 49" fill="none" xmlns="http://www.w3.org/2000/svg">
<g filter="url(#filter0_d_436_1432)">
<path d="M5 22C5 11.5066 13.5066 3 24 3H128C138.493 3 147 11.5066 147 22V22.8911C147 33.3845 138.493 41.8911 128 41.8911H24C13.5066 41.8911 5 33.3845 5 22.8911V22Z" fill="white"/>
<path d="M6 22C6 12.0589 14.0589 4 24 4H128C137.941 4 146 12.0589 146 22V22.8911C146 32.8322 137.941 40.8911 128 40.8911H24C14.0589 40.8911 6 32.8322 6 22.8911V22Z" stroke="#D2D2D2" stroke-width="2"/>
</g>
<defs>
<filter id="filter0_d_436_1432" x="0" y="0" width="152" height="48.8911" filterUnits="userSpaceOnUse" color-interpolation-filters="sRGB">
<feFlood flood-opacity="0" result="BackgroundImageFix"/>
<feColorMatrix in="SourceAlpha" type="matrix" values="0 0 0 0 0 0 0 0 0 0 0 0 0 0 0 0 0 0 127 0" result="hardAlpha"/>
<feOffset dy="2"/>
<feGaussianBlur stdDeviation="2.5"/>
<feComposite in2="hardAlpha" operator="out"/>
<feColorMatrix type="matrix" values="0 0 0 0 0 0 0 0 0 0 0 0 0 0 0 0 0 0 0.09 0"/>
<feBlend mode="normal" in2="BackgroundImageFix" result="effect1_dropShadow_436_1432"/>
<feBlend mode="normal" in="SourceGraphic" in2="effect1_dropShadow_436_1432" result="shape"/>
</filter>
</defs>
</svg>
