<svg width="24" height="24" viewBox="0 0 24 24" fill="none" xmlns="http://www.w3.org/2000/svg">
<g clip-path="url(#clip0_1355_1586)">
<path d="M12 24.0001C5.38078 24.0001 0 18.6122 0 12.0001C0 5.38802 5.38078 0.00012207 12 0.00012207C18.6192 0.00012207 24 5.38091 24 12.0001C24 18.6193 18.6192 24.0001 12 24.0001ZM12 1.42361C6.1637 1.42361 1.42349 6.16382 1.42349 12.0001C1.42349 17.8364 6.1637 22.5766 12 22.5766C17.8363 22.5766 22.5765 17.8364 22.5765 12.0001C22.5765 6.16382 17.8292 1.42361 12 1.42361Z" fill="#4A81FC"/>
<path d="M9.16714 10.2136C9.16714 10.9752 8.53369 11.5873 7.75789 11.5873C6.98208 11.5873 6.34863 10.9752 6.34863 10.2136C6.34863 9.45207 6.98208 8.83997 7.75789 8.83997C8.53369 8.83997 9.16714 9.45207 9.16714 10.2136Z" fill="#4A81FC"/>
<path d="M17.6515 10.2136C17.6515 10.9752 17.0181 11.5873 16.2423 11.5873C15.4665 11.5873 14.833 10.9752 14.833 10.2136C14.833 9.45207 15.4665 8.83997 16.2423 8.83997C17.0181 8.83997 17.6515 9.45207 17.6515 10.2136Z" fill="#4A81FC"/>
<path d="M14.4695 17.6655H9.5229C8.83962 17.6655 8.27734 17.1104 8.27734 16.42C8.27734 15.7296 8.8325 15.1744 9.5229 15.1744H14.4695C15.1528 15.1744 15.7151 15.7296 15.7151 16.42C15.7151 17.1104 15.1599 17.6655 14.4695 17.6655Z" fill="#4A81FC"/>
</g>
<defs>
<clipPath id="clip0_1355_1586">
<rect width="24" height="24" fill="white"/>
</clipPath>
</defs>
</svg>
