<svg width="68" height="114" viewBox="0 0 68 114" fill="none" xmlns="http://www.w3.org/2000/svg">
<path d="M34.2601 76.27H33.3301V79.05H34.2601V76.27Z" fill="#717374"/>
<path d="M34.2503 104.42H33.3203V98.0801H34.2503V104.42ZM34.2503 91.7301H33.3203V85.3901H34.2503V91.7301Z" fill="#717374"/>
<path d="M34.2601 110.76H33.3301V113.54H34.2601V110.76Z" fill="#717374"/>
<path d="M0 19.51L33.79 0L67.58 19.51V58.53L33.79 78.03L0 58.53V19.51Z" fill="#F68A1F"/>
<path d="M33.9707 50.293C32.5742 50.293 31.3047 49.9854 30.1621 49.3701C29.0293 48.7451 28.1357 47.8955 27.4814 46.8213C26.8271 45.7373 26.5 44.5312 26.5 43.2031C26.5 42.0898 26.7344 40.9619 27.2031 39.8193C27.6816 38.6768 28.4141 37.3633 29.4004 35.8789L34.1172 28.7891H38.1309L32.5938 37.1387L32.7256 37.2412C32.9697 36.9775 33.3164 36.7529 33.7656 36.5674C34.2246 36.3818 34.7617 36.2891 35.377 36.2891C36.5488 36.2891 37.5986 36.5869 38.5264 37.1826C39.4541 37.7686 40.1768 38.5791 40.6943 39.6143C41.2119 40.6494 41.4707 41.8066 41.4707 43.0859C41.4707 44.4434 41.1436 45.6738 40.4893 46.7773C39.835 47.8711 38.9365 48.7305 37.7939 49.3555C36.6514 49.9805 35.377 50.293 33.9707 50.293ZM33.9707 47.2754C34.7227 47.2754 35.3916 47.0996 35.9775 46.748C36.5635 46.3965 37.0176 45.9082 37.3398 45.2832C37.6719 44.6582 37.8379 43.9453 37.8379 43.1445C37.8379 42.334 37.6719 41.6113 37.3398 40.9766C37.0176 40.3418 36.5635 39.8486 35.9775 39.4971C35.3916 39.1357 34.7227 38.9551 33.9707 38.9551C33.2285 38.9551 32.5645 39.1357 31.9785 39.4971C31.4023 39.8584 30.9482 40.3564 30.6162 40.9912C30.2939 41.626 30.1328 42.3438 30.1328 43.1445C30.1328 43.9453 30.2939 44.6582 30.6162 45.2832C30.9482 45.9082 31.4023 46.3965 31.9785 46.748C32.5645 47.0996 33.2285 47.2754 33.9707 47.2754Z" fill="white"/>
</svg>
