<svg width="68" height="114" viewBox="0 0 68 114" fill="none" xmlns="http://www.w3.org/2000/svg">
<path d="M34.2601 76.27H33.3301V79.05H34.2601V76.27Z" fill="#717374"/>
<path d="M34.2503 104.42H33.3203V98.0801H34.2503V104.42ZM34.2503 91.7301H33.3203V85.3901H34.2503V91.7301Z" fill="#717374"/>
<path d="M34.2601 110.76H33.3301V113.54H34.2601V110.76Z" fill="#717374"/>
<path d="M0 19.51L33.79 0L67.58 19.51V58.53L33.79 78.03L0 58.53V19.51Z" fill="#F68A1F"/>
<path d="M34.1465 50.293C32.8477 50.293 31.6709 50.0342 30.6162 49.5166C29.5713 48.999 28.7412 48.2812 28.126 47.3633C27.5107 46.4453 27.1836 45.4102 27.1445 44.2578H30.6895C30.7383 44.8438 30.9189 45.3613 31.2314 45.8105C31.5537 46.2598 31.9688 46.6064 32.4766 46.8506C32.9844 47.0947 33.541 47.2168 34.1465 47.2168C34.8496 47.2168 35.4844 47.0459 36.0508 46.7041C36.627 46.3525 37.0762 45.8691 37.3984 45.2539C37.7305 44.6387 37.8965 43.9355 37.8965 43.1445C37.8965 42.334 37.7256 41.6113 37.3838 40.9766C37.0518 40.3418 36.5928 39.8535 36.0068 39.5117C35.4209 39.1602 34.7617 38.9844 34.0293 38.9844C33.2773 38.9648 32.6328 39.1016 32.0957 39.3945C31.5586 39.6777 31.1191 40.1465 30.7773 40.8008H27.4082L28.5801 28.7891H40.3867V31.9824H31.832L31.2461 37.6074H31.4219C31.7734 37.1289 32.2568 36.7432 32.8721 36.4502C33.4873 36.1475 34.2051 35.9961 35.0254 35.9961C36.2461 35.9961 37.3398 36.3037 38.3066 36.9189C39.2832 37.5244 40.0449 38.3643 40.5918 39.4385C41.1387 40.5029 41.4121 41.6992 41.4121 43.0273C41.4121 44.4336 41.0996 45.6885 40.4746 46.792C39.8594 47.8955 39 48.7549 37.8965 49.3701C36.793 49.9854 35.543 50.293 34.1465 50.293Z" fill="white"/>
</svg>
