<svg width="68" height="114" viewBox="0 0 68 114" fill="none" xmlns="http://www.w3.org/2000/svg">
<path d="M34.2601 76.27H33.3301V79.05H34.2601V76.27Z" fill="#717374"/>
<path d="M34.2503 104.42H33.3203V98.0801H34.2503V104.42ZM34.2503 91.7301H33.3203V85.3901H34.2503V91.7301Z" fill="#717374"/>
<path d="M34.2601 110.76H33.3301V113.54H34.2601V110.76Z" fill="#717374"/>
<path d="M0 19.51L33.79 0L67.58 19.51V58.53L33.79 78.03L0 58.53V19.51Z" fill="#F68A1F"/>
<path d="M30.2793 44.2285C30.3379 45.127 30.709 45.8252 31.3926 46.3232C32.0762 46.8213 32.9355 47.0703 33.9707 47.0703C34.6738 47.0703 35.2988 46.9434 35.8457 46.6895C36.4023 46.4355 36.8369 46.0596 37.1494 45.5615C37.4717 45.0635 37.6328 44.4629 37.6328 43.7598C37.6328 42.7051 37.2715 41.8555 36.5488 41.2109C35.8359 40.5664 34.7812 40.2441 33.3848 40.2441H31.3047V37.5488L35.9043 32.1875V31.9824H27.584V28.7891H40.6504V31.4844L35.3477 37.5781V37.8125C36.6074 37.959 37.6914 38.3252 38.5996 38.9111C39.5078 39.4873 40.1963 40.2197 40.665 41.1084C41.1338 41.9873 41.3633 42.9395 41.3535 43.9648C41.3633 45.1758 41.0508 46.2646 40.416 47.2314C39.7812 48.1885 38.8975 48.9404 37.7646 49.4873C36.6318 50.0244 35.3574 50.293 33.9414 50.293C32.5742 50.293 31.3389 50.0439 30.2354 49.5459C29.1416 49.0479 28.2725 48.3398 27.6279 47.4219C26.9834 46.5039 26.6367 45.4395 26.5879 44.2285H30.2793Z" fill="white"/>
</svg>
