<svg width="854" height="401" viewBox="0 0 854 401" fill="none" xmlns="http://www.w3.org/2000/svg">
<g clip-path="url(#clip0_1433_1583)">
<path d="M817.86 375.52H106.26C61.32 375.52 24.76 338.96 24.76 294.02C24.76 249.08 61.32 212.52 106.26 212.52H747.07C805.66 212.52 853.33 164.85 853.33 106.26C853.33 47.67 805.66 0 747.07 0H35.47C28.63 0 23.09 5.55 23.09 12.38C23.09 19.21 28.63 24.76 35.47 24.76H747.07C792.01 24.76 828.57 61.32 828.57 106.26C828.57 151.2 792.01 187.76 747.07 187.76H106.26C47.67 187.76 0 235.43 0 294.02C0 352.61 47.67 400.28 106.26 400.28H817.86C824.7 400.28 830.24 394.73 830.24 387.9C830.24 381.07 824.69 375.52 817.86 375.52Z" fill="#F3F3F4"/>
</g>
<defs>
<clipPath id="clip0_1433_1583">
<rect width="853.33" height="400.28" fill="white"/>
</clipPath>
</defs>
</svg>
