<svg width="68" height="114" viewBox="0 0 68 114" fill="none" xmlns="http://www.w3.org/2000/svg">
<path d="M34.2601 76.27H33.3301V79.05H34.2601V76.27Z" fill="#717374"/>
<path d="M34.2503 104.42H33.3203V98.0801H34.2503V104.42ZM34.2503 91.7301H33.3203V85.3901H34.2503V91.7301Z" fill="#717374"/>
<path d="M34.2601 110.76H33.3301V113.54H34.2601V110.76Z" fill="#717374"/>
<path d="M0 19.51L33.79 0L67.58 19.51V58.53L33.79 78.03L0 58.53V19.51Z" fill="#F68A1F"/>
<path d="M27.291 47.3047L34.1172 40.0098C34.9277 39.1504 35.5332 38.4766 35.9336 37.9883C36.3438 37.4902 36.666 36.9873 36.9004 36.4795C37.1445 35.9619 37.2715 35.4102 37.2812 34.8242C37.2812 34.1602 37.1348 33.584 36.8418 33.0957C36.5488 32.6074 36.1484 32.2363 35.6406 31.9824C35.1426 31.7285 34.5762 31.6016 33.9414 31.6016C33.2871 31.6016 32.7109 31.7432 32.2129 32.0264C31.7246 32.3096 31.3438 32.7148 31.0703 33.2422C30.8066 33.7695 30.6797 34.3945 30.6895 35.1172H27.2031C27.2031 33.8086 27.4912 32.6562 28.0674 31.6602C28.6436 30.6543 29.4443 29.8779 30.4697 29.3311C31.5049 28.7744 32.6816 28.4961 34 28.4961C35.3086 28.4961 36.4805 28.7598 37.5156 29.2871C38.5508 29.8145 39.3564 30.5469 39.9326 31.4844C40.5088 32.4121 40.7969 33.4668 40.7969 34.6484C40.7969 35.459 40.6553 36.2402 40.3721 36.9922C40.0889 37.7344 39.5957 38.5693 38.8926 39.4971C38.1992 40.4248 37.2031 41.5625 35.9043 42.9102L32.3594 46.6602V46.8066H41.0898V50H27.291V47.3047Z" fill="white"/>
</svg>
