<svg width="24" height="24" viewBox="0 0 24 24" fill="none" xmlns="http://www.w3.org/2000/svg">
<g clip-path="url(#clip0_1355_1577)">
<path d="M12.0036 24.0001C5.38238 24.0001 0 18.6122 0 12.0001C0 5.38802 5.38238 0.00012207 12.0036 0.00012207C18.6247 0.00012207 24.0071 5.38091 24.0071 12.0001C24.0071 18.6193 18.6247 24.0001 12.0036 24.0001ZM12.0036 1.42361C6.16553 1.42361 1.42391 6.16382 1.42391 12.0001C1.42391 17.8364 6.16553 22.5766 12.0036 22.5766C17.8416 22.5766 22.5832 17.8364 22.5832 12.0001C22.5832 6.16382 17.8345 1.42361 12.0036 1.42361Z" fill="#4A81FC"/>
<path d="M7.76026 11.1105C8.5388 11.1105 9.16993 10.4796 9.16993 9.70125C9.16993 8.92294 8.5388 8.29199 7.76026 8.29199C6.98172 8.29199 6.35059 8.92294 6.35059 9.70125C6.35059 10.4796 6.98172 11.1105 7.76026 11.1105Z" fill="#4A81FC"/>
<path d="M16.2397 11.1105C17.0183 11.1105 17.6494 10.4796 17.6494 9.70125C17.6494 8.92294 17.0183 8.29199 16.2397 8.29199C15.4612 8.29199 14.8301 8.92294 14.8301 9.70125C14.8301 10.4796 15.4612 11.1105 16.2397 11.1105Z" fill="#4A81FC"/>
<path d="M12.0034 18.4272C10.8002 18.4272 9.597 18.0784 8.18733 17.388C7.56793 17.082 7.31875 16.3417 7.62489 15.7225C7.93103 15.1033 8.67146 14.8542 9.29086 15.1603C11.4196 16.2136 12.5872 16.2136 14.7231 15.1603C15.3425 14.8542 16.0829 15.1104 16.3891 15.7225C16.6952 16.3417 16.4389 17.082 15.8266 17.388C14.4169 18.0855 13.2137 18.4272 12.0105 18.4272H12.0034Z" fill="#4A81FC"/>
</g>
<defs>
<clipPath id="clip0_1355_1577">
<rect width="24" height="24" fill="white"/>
</clipPath>
</defs>
</svg>
