<svg width="134" height="90" viewBox="0 0 134 90" fill="none" xmlns="http://www.w3.org/2000/svg">
<circle cx="67" cy="67" r="67" fill="#DCDCDC" fill-opacity="0.35"/>
<circle cx="67" cy="67" r="67" fill="url(#paint0_linear_1151_985)"/>
<circle cx="67" cy="67" r="65.5" stroke="#C6C6C6" stroke-opacity="0.34" stroke-width="3"/>
<g filter="url(#filter0_d_1151_985)">
<path fill-rule="evenodd" clip-rule="evenodd" d="M67.1454 25.8388C62.1292 25.8388 58.0628 29.7574 58.0628 34.5912V43.4382C58.0628 48.2721 62.1292 52.1907 67.1454 52.1907H68.1932C73.2094 52.1907 77.2758 48.2721 77.2758 43.4382V34.5912C77.2758 29.7574 73.2094 25.8388 68.1932 25.8388H67.1454ZM56.2793 34.5912C56.2793 28.8082 61.1442 24.1201 67.1454 24.1201H68.1932C74.1944 24.1201 79.0593 28.8082 79.0593 34.5912V43.4382C79.0593 49.2213 74.1944 53.9094 68.1932 53.9094H67.1454C61.1442 53.9094 56.2793 49.2213 56.2793 43.4382V34.5912Z" fill="#B0B0B0" fill-opacity="0.79"/>
</g>
<defs>
<filter id="filter0_d_1151_985" x="54.2793" y="24.1201" width="26.7793" height="33.7891" filterUnits="userSpaceOnUse" color-interpolation-filters="sRGB">
<feFlood flood-opacity="0" result="BackgroundImageFix"/>
<feColorMatrix in="SourceAlpha" type="matrix" values="0 0 0 0 0 0 0 0 0 0 0 0 0 0 0 0 0 0 127 0" result="hardAlpha"/>
<feOffset dy="2"/>
<feGaussianBlur stdDeviation="1"/>
<feComposite in2="hardAlpha" operator="out"/>
<feColorMatrix type="matrix" values="0 0 0 0 0 0 0 0 0 0 0 0 0 0 0 0 0 0 0.08 0"/>
<feBlend mode="normal" in2="BackgroundImageFix" result="effect1_dropShadow_1151_985"/>
<feBlend mode="normal" in="SourceGraphic" in2="effect1_dropShadow_1151_985" result="shape"/>
</filter>
<linearGradient id="paint0_linear_1151_985" x1="67" y1="-10" x2="67" y2="94" gradientUnits="userSpaceOnUse">
<stop stop-color="#152854"/>
<stop offset="1" stop-color="#1C2E58"/>
</linearGradient>
</defs>
</svg>
