<svg width="27" height="28" viewBox="0 0 27 28" fill="none" xmlns="http://www.w3.org/2000/svg">
<rect x="1" y="1.62488" width="20.5274" height="20.4107" rx="10" stroke="#2D2D2D" stroke-width="2"/>
<rect x="1" y="1.62488" width="20.5274" height="20.4107" rx="10" stroke="black" stroke-opacity="0.2" stroke-width="2"/>
<rect x="1" y="1.62488" width="20.5274" height="20.4107" rx="10" stroke="black" stroke-opacity="0.2" stroke-width="2"/>
<path d="M24.866 27.0402C25.2575 27.4297 25.8907 27.4281 26.2802 27.0365C26.6697 26.645 26.668 26.0118 26.2765 25.6223L24.866 27.0402ZM17.5777 19.7897L24.866 27.0402L26.2765 25.6223L18.9882 18.3718L17.5777 19.7897Z" fill="#2D2D2D"/>
<path d="M24.866 27.0402C25.2575 27.4297 25.8907 27.4281 26.2802 27.0365C26.6697 26.645 26.668 26.0118 26.2765 25.6223L24.866 27.0402ZM17.5777 19.7897L24.866 27.0402L26.2765 25.6223L18.9882 18.3718L17.5777 19.7897Z" fill="black" fill-opacity="0.2"/>
<path d="M24.866 27.0402C25.2575 27.4297 25.8907 27.4281 26.2802 27.0365C26.6697 26.645 26.668 26.0118 26.2765 25.6223L24.866 27.0402ZM17.5777 19.7897L24.866 27.0402L26.2765 25.6223L18.9882 18.3718L17.5777 19.7897Z" fill="black" fill-opacity="0.2"/>
</svg>
