<svg width="19" height="19" viewBox="0 0 19 19" fill="none" xmlns="http://www.w3.org/2000/svg">
<g clip-path="url(#clip0_439_5088)">
<path d="M12.6479 12.7043C11.3534 12.7043 10.1504 12.3172 9.14514 11.6512C9.25545 11.9634 9.31581 12.2964 9.31581 12.646C9.31581 14.284 7.98795 15.6118 6.35207 15.6118C4.71618 15.6118 3.38832 14.284 3.38832 12.646C3.38832 11.008 4.71618 9.68227 6.35207 9.68227C6.70172 9.68227 7.03681 9.74262 7.349 9.85501L9.85486 7.34707C8.8496 6.68314 7.64662 6.29395 6.35207 6.29395C2.84303 6.29395 0 9.13905 0 12.646C0 16.153 2.84303 19.0002 6.35207 19.0002C9.8611 19.0002 12.6729 16.1863 12.7041 12.7022C12.6854 12.7022 12.6667 12.7022 12.6479 12.7022" fill="#FF5722"/>
<path d="M6.35196 6.29379C7.64652 6.29379 8.8495 6.68299 9.85476 7.34692C9.74445 7.03681 9.68201 6.69964 9.68201 6.34998C9.68201 4.7141 11.0099 3.38624 12.6458 3.38624C14.2816 3.38624 15.6095 4.7141 15.6095 6.34998C15.6095 7.98587 14.2816 9.31373 12.6458 9.31373C12.2961 9.31373 11.961 9.25337 11.6509 9.14306L9.14504 11.6489C10.1482 12.3149 11.3533 12.702 12.6478 12.702C16.1569 12.702 18.9999 9.85902 18.9999 6.34998C18.9999 2.84095 16.1569 0 12.6478 0C9.1388 0 6.32699 2.81389 6.29785 6.29587C6.31658 6.29587 6.33531 6.29587 6.35405 6.29587" fill="#4A81FC"/>
</g>
<defs>
<clipPath id="clip0_439_5088">
<rect width="19" height="19" fill="white"/>
</clipPath>
</defs>
</svg>
