<svg width="26" height="26" viewBox="0 0 26 26" fill="none" xmlns="http://www.w3.org/2000/svg">
<g clip-path="url(#clip0_1422_1339)">
<path d="M17.3077 17.3846C15.5362 17.3846 13.89 16.8549 12.5144 15.9435C12.6654 16.3707 12.7479 16.8264 12.7479 17.3048C12.7479 19.5463 10.9309 21.3633 8.6923 21.3633C6.45372 21.3633 4.63665 19.5463 4.63665 17.3048C4.63665 15.0634 6.45372 13.2492 8.6923 13.2492C9.17077 13.2492 9.62931 13.3318 10.0565 13.4856L13.4856 10.0537C12.11 9.14514 10.4638 8.61255 8.6923 8.61255C3.89046 8.61255 0 12.5059 0 17.3048C0 22.1038 3.89046 26 8.6923 26C13.4941 26 17.3419 22.1494 17.3846 17.3817C17.359 17.3817 17.3333 17.3817 17.3077 17.3817" fill="#FF5722"/>
<path d="M8.69319 8.61255C10.4647 8.61255 12.1109 9.14514 13.4865 10.0537C13.3355 9.62931 13.2501 9.16793 13.2501 8.68945C13.2501 6.45087 15.0672 4.6338 17.3057 4.6338C19.5443 4.6338 21.3614 6.45087 21.3614 8.68945C21.3614 10.928 19.5443 12.7451 17.3057 12.7451C16.8273 12.7451 16.3687 12.6625 15.9444 12.5116L12.5153 15.9406C13.8881 16.852 15.5371 17.3818 17.3086 17.3818C22.1104 17.3818 26.0009 13.4913 26.0009 8.68945C26.0009 3.88761 22.1104 0 17.3086 0C12.5068 0 8.65901 3.85059 8.61914 8.6154C8.64477 8.6154 8.67041 8.6154 8.69604 8.6154" fill="#4A81FC"/>
</g>
<defs>
<clipPath id="clip0_1422_1339">
<rect width="26" height="26" fill="white"/>
</clipPath>
</defs>
</svg>
