<svg width="517" height="517" viewBox="0 0 517 517" fill="none" xmlns="http://www.w3.org/2000/svg">
<path d="M2.7853 255.681C55.3662 255.782 104.197 271.688 144.975 298.738C140.519 286.131 138.01 272.429 138.037 258.225C138.166 191.769 192.203 137.931 258.648 138.06C325.093 138.188 378.922 192.235 378.794 258.69C378.665 325.146 324.628 378.984 258.183 378.855C243.981 378.828 230.375 376.35 217.788 371.844L115.811 473.445C156.505 500.579 205.421 516.4 258.001 516.502C400.528 516.777 516.226 401.506 516.502 258.956C516.777 116.406 401.44 0.773674 258.914 0.498307C116.387 0.22294 1.95947 114.313 0.502685 255.761C1.2635 255.762 2.02432 255.764 2.78514 255.765" fill="url(#paint0_linear_846_1258)" fill-opacity="0.78"/>
<defs>
<linearGradient id="paint0_linear_846_1258" x1="395" y1="104" x2="63" y2="429" gradientUnits="userSpaceOnUse">
<stop stop-color="#8EBBD8"/>
<stop offset="0.735" stop-color="#F0F6FA" stop-opacity="0.1"/>
</linearGradient>
</defs>
</svg>
