<svg width="324" height="323" viewBox="0 0 324 323" fill="none" xmlns="http://www.w3.org/2000/svg">
<path d="M322.567 162.955C289.551 162.955 258.871 153.114 233.233 136.184C236.047 144.12 237.586 152.585 237.586 161.474C237.586 203.112 203.721 236.867 162 236.867C120.279 236.867 86.4142 203.112 86.4142 161.474C86.4142 119.835 120.279 86.1333 162 86.1333C170.917 86.1333 179.463 87.6677 187.425 90.5247L251.334 26.7712C225.749 9.89369 195.016 0 162 0C72.5072 0 0 72.3245 0 161.474C0 250.623 72.5072 323 162 323C251.493 323 323.204 251.469 324 162.902C323.522 162.902 323.045 162.902 322.567 162.902" fill="url(#paint0_linear_846_1256)" fill-opacity="0.36"/>
<defs>
<linearGradient id="paint0_linear_846_1256" x1="234" y1="123" x2="109.225" y2="197.068" gradientUnits="userSpaceOnUse">
<stop stop-color="white" stop-opacity="0"/>
<stop offset="1" stop-color="#EC6543"/>
</linearGradient>
</defs>
</svg>
