<svg width="24" height="24" viewBox="0 0 24 24" fill="none" xmlns="http://www.w3.org/2000/svg">
<g clip-path="url(#clip0_1398_901)">
<path d="M12.0106 24C11.7543 24 11.5052 23.9928 11.2488 23.9786C8.05217 23.7793 5.11892 22.3487 2.99729 19.943C-1.38123 14.9822 -0.91134 7.38073 4.05099 3.00351C6.45739 0.882512 9.54016 -0.177986 12.744 0.0213025C15.9406 0.220591 18.8739 1.6512 20.9955 4.05689C23.1171 6.46258 24.178 9.54443 23.9786 12.7402C23.7793 15.9359 22.3482 18.8683 19.9418 20.9893C17.7276 22.9395 14.9368 23.9928 12.0178 23.9928L12.0106 24Z" fill="#4A81FC"/>
<path d="M9.12052 10.3632C8.77878 10.3632 8.50112 10.0856 8.50112 9.74393C8.50112 9.13183 8.00275 8.63361 7.39047 8.63361C6.77819 8.63361 6.27982 9.13183 6.27982 9.74393C6.27982 10.0856 6.00215 10.3632 5.66042 10.3632C5.31868 10.3632 5.04102 10.0856 5.04102 9.74393C5.04102 8.44856 6.09471 7.38806 7.39759 7.38806C8.70046 7.38806 9.75416 8.44144 9.75416 9.74393C9.75416 10.0856 9.47649 10.3632 9.13476 10.3632H9.12052Z" fill="white"/>
<path d="M18.3402 10.3632C17.9985 10.3632 17.7208 10.0856 17.7208 9.74393C17.7208 9.13183 17.2225 8.63361 16.6102 8.63361C15.9979 8.63361 15.4995 9.13183 15.4995 9.74393C15.4995 10.0856 15.2219 10.3632 14.8801 10.3632C14.5384 10.3632 14.2607 10.0856 14.2607 9.74393C14.2607 8.44856 15.3144 7.38806 16.6173 7.38806C17.9202 7.38806 18.9739 8.44144 18.9739 9.74393C18.9739 10.0856 18.6962 10.3632 18.3545 10.3632H18.3402Z" fill="white"/>
<path d="M16.7524 14.1069C16.9304 14.1069 17.087 14.2564 17.0728 14.4343C16.9731 15.7084 16.311 16.84 15.3 17.6087C14.4101 18.3133 13.2638 18.7262 12.0037 18.7262C10.7435 18.7262 9.59012 18.3133 8.7073 17.6087C7.71056 16.84 7.03421 15.7084 6.93453 14.4343C6.92029 14.2564 7.0698 14.1069 7.25491 14.1069H16.7595H16.7524Z" fill="white"/>
<path d="M15.2997 17.6158C14.4098 18.3204 13.2635 18.7332 12.0034 18.7332C10.7432 18.7332 9.58986 18.3204 8.70703 17.6158C9.31931 16.413 10.5652 15.6016 12.0034 15.6016C13.4415 15.6016 14.6875 16.413 15.2997 17.6158Z" fill="#8FB7FF"/>
</g>
<defs>
<clipPath id="clip0_1398_901">
<rect width="24" height="24" fill="white"/>
</clipPath>
</defs>
</svg>
