<svg width="517" height="488" viewBox="0 0 517 488" fill="none" xmlns="http://www.w3.org/2000/svg">
<path d="M2.78457 226.681C55.3655 226.782 104.196 242.688 144.975 269.738C140.519 257.131 138.009 243.429 138.037 229.225C138.165 162.769 192.203 108.931 258.647 109.06C325.092 109.188 378.921 163.235 378.793 229.69C378.664 296.146 324.627 349.984 258.182 349.855C243.98 349.828 230.375 347.35 217.788 342.844L115.811 444.445C156.504 471.579 205.42 487.4 258.001 487.502C400.527 487.777 516.225 372.506 516.501 229.956C516.776 87.4064 401.44 -28.2263 258.913 -28.5017C116.387 -28.7771 1.95873 85.3127 0.501952 226.761C1.26277 226.762 2.02359 226.764 2.7844 226.765" fill="url(#paint0_linear_1151_1010)" fill-opacity="0.35"/>
<defs>
<linearGradient id="paint0_linear_1151_1010" x1="492.499" y1="-15" x2="31.999" y2="377" gradientUnits="userSpaceOnUse">
<stop stop-color="#8EBBD8"/>
<stop offset="0.735" stop-color="#8EBBD8" stop-opacity="0"/>
</linearGradient>
</defs>
</svg>
